<?xml version="1.0" encoding="UTF-8" standalone="no"?>
<svg xmlns="http://www.w3.org/2000/svg" xmlns:xlink="http://www.w3.org/1999/xlink" contentScriptType="application/ecmascript" contentStyleType="text/css" height="463px" preserveAspectRatio="none" style="width:1695px;height:463px;background:#FFFFFF;" version="1.1" viewBox="0 0 1695 463" width="1695px" zoomAndPan="magnify"><defs><filter height="300%" id="f6z2qveue8o4" width="300%" x="-1" y="-1"><feGaussianBlur result="blurOut" stdDeviation="2.0"/><feColorMatrix in="blurOut" result="blurOut2" type="matrix" values="0 0 0 0 0 0 0 0 0 0 0 0 0 0 0 0 0 0 .4 0"/><feOffset dx="4.0" dy="4.0" in="blurOut2" result="blurOut3"/><feBlend in="SourceGraphic" in2="blurOut3" mode="normal"/></filter></defs><g><!--MD5=[6ea60ecd88e33b803e9a9c0520d1a8e1]
cluster ru.mirea.edu.magmacrypt--><polygon fill="#FFFFFF" filter="url(#f6z2qveue8o4)" points="595,25,811,25,818,47.2969,1077,47.2969,1077,201,595,201,595,25" style="stroke:#000000;stroke-width:1.5;"/><line style="stroke:#000000;stroke-width:1.5;" x1="595" x2="818" y1="47.2969" y2="47.2969"/><text fill="#000000" font-family="sans-serif" font-size="14" font-weight="bold" lengthAdjust="spacing" textLength="210" x="599" y="39.9951">ru.mirea.edu.magmacrypt</text><!--MD5=[235f569e00347a075ea035dfee049946]
cluster ru.mirea.edu.magmacrypt.auxiliary--><polygon fill="#FFFFFF" filter="url(#f6z2qveue8o4)" points="16,6,307,6,314,28.2969,571,28.2969,571,437,16,437,16,6" style="stroke:#000000;stroke-width:1.5;"/><line style="stroke:#000000;stroke-width:1.5;" x1="16" x2="314" y1="28.2969" y2="28.2969"/><text fill="#000000" font-family="sans-serif" font-size="14" font-weight="bold" lengthAdjust="spacing" textLength="285" x="20" y="20.9951">ru.mirea.edu.magmacrypt.auxiliary</text><!--MD5=[1c62fa561b925aa7439fb85a88241fdf]
cluster ru.mirea.edu.magmacrypt.cipher--><polygon fill="#FFFFFF" filter="url(#f6z2qveue8o4)" points="1101,38,1372,38,1379,60.2969,1678,60.2969,1678,456,1101,456,1101,38" style="stroke:#000000;stroke-width:1.5;"/><line style="stroke:#000000;stroke-width:1.5;" x1="1101" x2="1379" y1="60.2969" y2="60.2969"/><text fill="#000000" font-family="sans-serif" font-size="14" font-weight="bold" lengthAdjust="spacing" textLength="265" x="1105" y="52.9951">ru.mirea.edu.magmacrypt.cipher</text><!--MD5=[335f4d9be48430461c68bf6d6fdba145]
class App--><rect codeLine="2" fill="#FEFECE" filter="url(#f6z2qveue8o4)" height="124.8281" id="App" style="stroke:#A80036;stroke-width:1.5;" width="450" x="611" y="60"/><ellipse cx="819.75" cy="76" fill="#ADD1B2" rx="11" ry="11" style="stroke:#A80036;stroke-width:1.0;"/><path d="M822.0938,71.6719 C821.1563,71.2344 820.5625,71.0938 819.6875,71.0938 C817.0625,71.0938 815.0625,73.1719 815.0625,75.8906 L815.0625,77.0156 C815.0625,79.5938 817.1719,81.4844 820.0625,81.4844 C821.2813,81.4844 822.4375,81.1875 823.1875,80.6406 C823.7656,80.2344 824.0938,79.7813 824.0938,79.3906 C824.0938,78.9375 823.7031,78.5469 823.2344,78.5469 C823.0156,78.5469 822.8125,78.625 822.625,78.8125 C822.1719,79.2969 822.1719,79.2969 821.9844,79.3906 C821.5625,79.6563 820.875,79.7813 820.1094,79.7813 C818.0625,79.7813 816.7656,78.6875 816.7656,76.9844 L816.7656,75.8906 C816.7656,74.1094 818.0156,72.7969 819.75,72.7969 C820.3281,72.7969 820.9375,72.9531 821.4063,73.2031 C821.8906,73.4844 822.0625,73.7031 822.1563,74.1094 C822.2188,74.5156 822.25,74.6406 822.3906,74.7656 C822.5313,74.9063 822.7656,75.0156 822.9844,75.0156 C823.25,75.0156 823.5156,74.875 823.6875,74.6563 C823.7969,74.5 823.8281,74.3125 823.8281,73.8906 L823.8281,72.4688 C823.8281,72.0313 823.8125,71.9063 823.7188,71.75 C823.5625,71.4844 823.2813,71.3438 822.9844,71.3438 C822.6875,71.3438 822.4844,71.4375 822.2656,71.75 L822.0938,71.6719 Z " fill="#000000"/><text fill="#000000" font-family="sans-serif" font-size="12" lengthAdjust="spacing" textLength="24" x="840.25" y="80.1543">App</text><line style="stroke:#A80036;stroke-width:1.5;" x1="612" x2="1060" y1="92" y2="92"/><ellipse cx="622" cy="103" rx="3" ry="3" style="stroke:#038048;stroke-width:1.0;fill:none;"/><text fill="#000000" font-family="sans-serif" font-size="11" lengthAdjust="spacing" text-decoration="underline" textLength="179" x="631" y="106.2104">KEY_FILE_OUTPUT_PATH : String</text><ellipse cx="622" cy="115.8047" rx="3" ry="3" style="stroke:#038048;stroke-width:1.0;fill:none;"/><text fill="#000000" font-family="sans-serif" font-size="11" lengthAdjust="spacing" text-decoration="underline" textLength="152" x="631" y="119.0151">OUTPUT_FILE_PATH : String</text><line style="stroke:#A80036;stroke-width:1.5;" x1="612" x2="1060" y1="125.6094" y2="125.6094"/><ellipse cx="622" cy="136.6094" fill="#84BE84" rx="3" ry="3" style="stroke:#038048;stroke-width:1.0;"/><text fill="#000000" font-family="sans-serif" font-size="11" lengthAdjust="spacing" textLength="30" x="631" y="139.8198">App()</text><ellipse cx="622" cy="149.4141" fill="#84BE84" rx="3" ry="3" style="stroke:#038048;stroke-width:1.0;"/><text fill="#000000" font-family="sans-serif" font-size="11" lengthAdjust="spacing" text-decoration="underline" textLength="424" x="631" y="152.6245">decrypt(encryptedFilePath : String, keyFilePath : String, outputPath : String)</text><ellipse cx="622" cy="162.2188" fill="#84BE84" rx="3" ry="3" style="stroke:#038048;stroke-width:1.0;"/><text fill="#000000" font-family="sans-serif" font-size="11" lengthAdjust="spacing" text-decoration="underline" textLength="231" x="631" y="165.4292">encrypt(path : String, outputPath : String)</text><ellipse cx="622" cy="175.0234" fill="#84BE84" rx="3" ry="3" style="stroke:#038048;stroke-width:1.0;"/><text fill="#000000" font-family="sans-serif" font-size="11" lengthAdjust="spacing" text-decoration="underline" textLength="112" x="631" y="178.2339">main(args : String[])</text><!--MD5=[60c9ed31c535bee25c55ce21b5b01399]
class Data--><rect codeLine="12" fill="#FEFECE" filter="url(#f6z2qveue8o4)" height="163.2422" id="Data" style="stroke:#A80036;stroke-width:1.5;" width="334" x="32" y="41"/><ellipse cx="181.25" cy="57" fill="#ADD1B2" rx="11" ry="11" style="stroke:#A80036;stroke-width:1.0;"/><path d="M183.5938,52.6719 C182.6563,52.2344 182.0625,52.0938 181.1875,52.0938 C178.5625,52.0938 176.5625,54.1719 176.5625,56.8906 L176.5625,58.0156 C176.5625,60.5938 178.6719,62.4844 181.5625,62.4844 C182.7813,62.4844 183.9375,62.1875 184.6875,61.6406 C185.2656,61.2344 185.5938,60.7813 185.5938,60.3906 C185.5938,59.9375 185.2031,59.5469 184.7344,59.5469 C184.5156,59.5469 184.3125,59.625 184.125,59.8125 C183.6719,60.2969 183.6719,60.2969 183.4844,60.3906 C183.0625,60.6563 182.375,60.7813 181.6094,60.7813 C179.5625,60.7813 178.2656,59.6875 178.2656,57.9844 L178.2656,56.8906 C178.2656,55.1094 179.5156,53.7969 181.25,53.7969 C181.8281,53.7969 182.4375,53.9531 182.9063,54.2031 C183.3906,54.4844 183.5625,54.7031 183.6563,55.1094 C183.7188,55.5156 183.75,55.6406 183.8906,55.7656 C184.0313,55.9063 184.2656,56.0156 184.4844,56.0156 C184.75,56.0156 185.0156,55.875 185.1875,55.6563 C185.2969,55.5 185.3281,55.3125 185.3281,54.8906 L185.3281,53.4688 C185.3281,53.0313 185.3125,52.9063 185.2188,52.75 C185.0625,52.4844 184.7813,52.3438 184.4844,52.3438 C184.1875,52.3438 183.9844,52.4375 183.7656,52.75 L183.5938,52.6719 Z " fill="#000000"/><text fill="#000000" font-family="sans-serif" font-size="12" lengthAdjust="spacing" textLength="27" x="201.75" y="61.1543">Data</text><line style="stroke:#A80036;stroke-width:1.5;" x1="33" x2="365" y1="73" y2="73"/><line style="stroke:#A80036;stroke-width:1.5;" x1="33" x2="365" y1="81" y2="81"/><ellipse cx="43" cy="92" fill="#84BE84" rx="3" ry="3" style="stroke:#038048;stroke-width:1.0;"/><text fill="#000000" font-family="sans-serif" font-size="11" lengthAdjust="spacing" textLength="35" x="52" y="95.2104">Data()</text><ellipse cx="43" cy="104.8047" fill="#84BE84" rx="3" ry="3" style="stroke:#038048;stroke-width:1.0;"/><text fill="#000000" font-family="sans-serif" font-size="11" lengthAdjust="spacing" text-decoration="underline" textLength="201" x="52" y="108.0151">addPadding(source : byte[]) : byte[]</text><ellipse cx="43" cy="117.6094" fill="#84BE84" rx="3" ry="3" style="stroke:#038048;stroke-width:1.0;"/><text fill="#000000" font-family="sans-serif" font-size="11" lengthAdjust="spacing" text-decoration="underline" textLength="227" x="52" y="120.8198">checkIfPathIsFile(path : String) : boolean</text><ellipse cx="43" cy="130.4141" fill="#84BE84" rx="3" ry="3" style="stroke:#038048;stroke-width:1.0;"/><text fill="#000000" font-family="sans-serif" font-size="11" lengthAdjust="spacing" text-decoration="underline" textLength="253" x="52" y="133.6245">checkIfPathNonExists(path : String) : boolean</text><ellipse cx="43" cy="143.2188" fill="#84BE84" rx="3" ry="3" style="stroke:#038048;stroke-width:1.0;"/><text fill="#000000" font-family="sans-serif" font-size="11" lengthAdjust="spacing" text-decoration="underline" textLength="288" x="52" y="146.4292">deserializeBytesToObject(bytes : byte[]) : Payload</text><ellipse cx="43" cy="156.0234" fill="#84BE84" rx="3" ry="3" style="stroke:#038048;stroke-width:1.0;"/><text fill="#000000" font-family="sans-serif" font-size="11" lengthAdjust="spacing" text-decoration="underline" textLength="200" x="52" y="159.2339">packDirectory(path : String) : byte[]</text><ellipse cx="43" cy="168.8281" fill="#84BE84" rx="3" ry="3" style="stroke:#038048;stroke-width:1.0;"/><text fill="#000000" font-family="sans-serif" font-size="11" lengthAdjust="spacing" text-decoration="underline" textLength="201" x="52" y="172.0386">readFileBytes(path : String) : byte[]</text><ellipse cx="43" cy="181.6328" fill="#84BE84" rx="3" ry="3" style="stroke:#038048;stroke-width:1.0;"/><text fill="#000000" font-family="sans-serif" font-size="11" lengthAdjust="spacing" text-decoration="underline" textLength="258" x="52" y="184.8433">serializeObjectToBytes(obj : Payload) : byte[]</text><ellipse cx="43" cy="194.4375" fill="#84BE84" rx="3" ry="3" style="stroke:#038048;stroke-width:1.0;"/><text fill="#000000" font-family="sans-serif" font-size="11" lengthAdjust="spacing" text-decoration="underline" textLength="308" x="52" y="197.6479">writeBytesToFileByPath(path : String, payload : byte[])</text><!--MD5=[cc9f4f616b3bacf1757bab89af969e78]
class KeyGen--><rect codeLine="23" fill="#FEFECE" filter="url(#f6z2qveue8o4)" height="73.6094" id="KeyGen" style="stroke:#A80036;stroke-width:1.5;" width="154" x="401" y="85.5"/><ellipse cx="450.25" cy="101.5" fill="#ADD1B2" rx="11" ry="11" style="stroke:#A80036;stroke-width:1.0;"/><path d="M452.5938,97.1719 C451.6563,96.7344 451.0625,96.5938 450.1875,96.5938 C447.5625,96.5938 445.5625,98.6719 445.5625,101.3906 L445.5625,102.5156 C445.5625,105.0938 447.6719,106.9844 450.5625,106.9844 C451.7813,106.9844 452.9375,106.6875 453.6875,106.1406 C454.2656,105.7344 454.5938,105.2813 454.5938,104.8906 C454.5938,104.4375 454.2031,104.0469 453.7344,104.0469 C453.5156,104.0469 453.3125,104.125 453.125,104.3125 C452.6719,104.7969 452.6719,104.7969 452.4844,104.8906 C452.0625,105.1563 451.375,105.2813 450.6094,105.2813 C448.5625,105.2813 447.2656,104.1875 447.2656,102.4844 L447.2656,101.3906 C447.2656,99.6094 448.5156,98.2969 450.25,98.2969 C450.8281,98.2969 451.4375,98.4531 451.9063,98.7031 C452.3906,98.9844 452.5625,99.2031 452.6563,99.6094 C452.7188,100.0156 452.75,100.1406 452.8906,100.2656 C453.0313,100.4063 453.2656,100.5156 453.4844,100.5156 C453.75,100.5156 454.0156,100.375 454.1875,100.1563 C454.2969,100 454.3281,99.8125 454.3281,99.3906 L454.3281,97.9688 C454.3281,97.5313 454.3125,97.4063 454.2188,97.25 C454.0625,96.9844 453.7813,96.8438 453.4844,96.8438 C453.1875,96.8438 452.9844,96.9375 452.7656,97.25 L452.5938,97.1719 Z " fill="#000000"/><text fill="#000000" font-family="sans-serif" font-size="12" lengthAdjust="spacing" textLength="47" x="470.75" y="105.6543">KeyGen</text><line style="stroke:#A80036;stroke-width:1.5;" x1="402" x2="554" y1="117.5" y2="117.5"/><line style="stroke:#A80036;stroke-width:1.5;" x1="402" x2="554" y1="125.5" y2="125.5"/><ellipse cx="412" cy="136.5" fill="#84BE84" rx="3" ry="3" style="stroke:#038048;stroke-width:1.0;"/><text fill="#000000" font-family="sans-serif" font-size="11" lengthAdjust="spacing" textLength="54" x="421" y="139.7104">KeyGen()</text><ellipse cx="412" cy="149.3047" fill="#84BE84" rx="3" ry="3" style="stroke:#038048;stroke-width:1.0;"/><text fill="#000000" font-family="sans-serif" font-size="11" lengthAdjust="spacing" text-decoration="underline" textLength="128" x="421" y="152.5151">generateKey() : byte[]</text><!--MD5=[8091df425c121e9542bfe22ce29d2d4c]
class Payload--><rect codeLine="27" fill="#FEFECE" filter="url(#f6z2qveue8o4)" height="137.6328" id="Payload" style="stroke:#A80036;stroke-width:1.5;" width="258" x="70" y="283"/><ellipse cx="171.75" cy="299" fill="#ADD1B2" rx="11" ry="11" style="stroke:#A80036;stroke-width:1.0;"/><path d="M174.0938,294.6719 C173.1563,294.2344 172.5625,294.0938 171.6875,294.0938 C169.0625,294.0938 167.0625,296.1719 167.0625,298.8906 L167.0625,300.0156 C167.0625,302.5938 169.1719,304.4844 172.0625,304.4844 C173.2813,304.4844 174.4375,304.1875 175.1875,303.6406 C175.7656,303.2344 176.0938,302.7813 176.0938,302.3906 C176.0938,301.9375 175.7031,301.5469 175.2344,301.5469 C175.0156,301.5469 174.8125,301.625 174.625,301.8125 C174.1719,302.2969 174.1719,302.2969 173.9844,302.3906 C173.5625,302.6563 172.875,302.7813 172.1094,302.7813 C170.0625,302.7813 168.7656,301.6875 168.7656,299.9844 L168.7656,298.8906 C168.7656,297.1094 170.0156,295.7969 171.75,295.7969 C172.3281,295.7969 172.9375,295.9531 173.4063,296.2031 C173.8906,296.4844 174.0625,296.7031 174.1563,297.1094 C174.2188,297.5156 174.25,297.6406 174.3906,297.7656 C174.5313,297.9063 174.7656,298.0156 174.9844,298.0156 C175.25,298.0156 175.5156,297.875 175.6875,297.6563 C175.7969,297.5 175.8281,297.3125 175.8281,296.8906 L175.8281,295.4688 C175.8281,295.0313 175.8125,294.9063 175.7188,294.75 C175.5625,294.4844 175.2813,294.3438 174.9844,294.3438 C174.6875,294.3438 174.4844,294.4375 174.2656,294.75 L174.0938,294.6719 Z " fill="#000000"/><text fill="#000000" font-family="sans-serif" font-size="12" lengthAdjust="spacing" textLength="46" x="192.25" y="303.1543">Payload</text><line style="stroke:#A80036;stroke-width:1.5;" x1="71" x2="327" y1="315" y2="315"/><rect fill="none" height="6" style="stroke:#C82930;stroke-width:1.0;" width="6" x="78" y="323"/><text fill="#000000" font-family="sans-serif" font-size="11" lengthAdjust="spacing" textLength="77" x="90" y="329.2104">bytes : byte[]</text><rect fill="none" height="6" style="stroke:#C82930;stroke-width:1.0;" width="6" x="78" y="335.8047"/><text fill="#000000" font-family="sans-serif" font-size="11" lengthAdjust="spacing" textLength="96" x="90" y="342.0151">fileName : String</text><rect fill="none" height="6" style="stroke:#C82930;stroke-width:1.0;" width="6" x="78" y="348.6094"/><text fill="#000000" font-family="sans-serif" font-size="11" lengthAdjust="spacing" text-decoration="underline" textLength="129" x="90" y="354.8198">serialVersionUID : long</text><line style="stroke:#A80036;stroke-width:1.5;" x1="71" x2="327" y1="361.4141" y2="361.4141"/><ellipse cx="81" cy="372.4141" fill="#84BE84" rx="3" ry="3" style="stroke:#038048;stroke-width:1.0;"/><text fill="#000000" font-family="sans-serif" font-size="11" lengthAdjust="spacing" textLength="52" x="90" y="375.6245">Payload()</text><ellipse cx="81" cy="385.2188" fill="#84BE84" rx="3" ry="3" style="stroke:#038048;stroke-width:1.0;"/><text fill="#000000" font-family="sans-serif" font-size="11" lengthAdjust="spacing" textLength="232" x="90" y="388.4292">Payload(fileName : String, bytes : byte[])</text><ellipse cx="81" cy="398.0234" fill="#84BE84" rx="3" ry="3" style="stroke:#038048;stroke-width:1.0;"/><text fill="#000000" font-family="sans-serif" font-size="11" lengthAdjust="spacing" textLength="105" x="90" y="401.2339">getBytes() : byte[]</text><ellipse cx="81" cy="410.8281" fill="#84BE84" rx="3" ry="3" style="stroke:#038048;stroke-width:1.0;"/><text fill="#000000" font-family="sans-serif" font-size="11" lengthAdjust="spacing" textLength="125" x="90" y="414.0386">getFileName() : String</text><!--MD5=[8900b8126f988052b90f9f1b0582e804]
class Algorithm--><rect codeLine="38" fill="#FEFECE" filter="url(#f6z2qveue8o4)" height="176.0469" id="Algorithm" style="stroke:#A80036;stroke-width:1.5;" width="362" x="1208" y="264"/><ellipse cx="1355.25" cy="280" fill="#A9DCDF" rx="11" ry="11" style="stroke:#A80036;stroke-width:1.0;"/><path d="M1357.3281,281.8125 L1357.7188,282.7969 L1357.3281,282.7969 C1356.875,282.7969 1356.7656,282.8125 1356.6094,282.9219 C1356.3594,283.0781 1356.2031,283.3594 1356.2031,283.6563 C1356.2031,283.9219 1356.3438,284.1719 1356.5625,284.3281 C1356.7031,284.4531 1356.9063,284.5 1357.3281,284.5 L1359.6875,284.5 C1360.0469,284.5 1360.2656,284.4688 1360.4063,284.375 C1360.6563,284.2344 1360.8125,283.9375 1360.8125,283.6563 C1360.8125,283.375 1360.6719,283.125 1360.4531,282.9688 C1360.2813,282.8281 1360.125,282.7969 1359.6563,282.7969 L1356.2656,274.5938 L1352.5938,274.5938 C1352.1406,274.5938 1352.0156,274.6094 1351.8594,274.7031 C1351.6094,274.875 1351.4531,275.1563 1351.4531,275.4375 C1351.4531,275.7188 1351.5938,275.9688 1351.8125,276.1406 C1351.9844,276.25 1352.1563,276.2813 1352.5938,276.2813 L1353.6719,276.2813 L1351.0313,282.7969 C1350.6094,282.7969 1350.4531,282.8125 1350.2969,282.9219 C1350.0469,283.0781 1349.8906,283.3594 1349.8906,283.6563 C1349.8906,284.2188 1350.2656,284.5 1351.0156,284.5 L1353.2813,284.5 C1353.6406,284.5 1353.8594,284.4688 1353.9844,284.375 C1354.25,284.2344 1354.3906,283.9375 1354.3906,283.6563 C1354.3906,283.375 1354.2656,283.125 1354.0469,282.9531 C1353.875,282.8281 1353.7344,282.7969 1353.2813,282.7969 L1352.8906,282.7969 L1353.2813,281.8125 L1357.3281,281.8125 Z M1356.625,280.1094 L1353.9531,280.1094 L1355.2969,276.8438 L1356.625,280.1094 Z " fill="#000000"/><text fill="#000000" font-family="sans-serif" font-size="12" font-style="italic" lengthAdjust="spacing" textLength="59" x="1375.75" y="284.1543">Algorithm</text><line style="stroke:#A80036;stroke-width:1.5;" x1="1209" x2="1569" y1="296" y2="296"/><rect fill="none" height="6" style="stroke:#C82930;stroke-width:1.0;" width="6" x="1216" y="304"/><text fill="#000000" font-family="sans-serif" font-size="11" lengthAdjust="spacing" textLength="81" x="1228" y="310.2104">sBox : byte[][]</text><line style="stroke:#A80036;stroke-width:1.5;" x1="1209" x2="1569" y1="316.8047" y2="316.8047"/><ellipse cx="1219" cy="327.8047" fill="#84BE84" rx="3" ry="3" style="stroke:#038048;stroke-width:1.0;"/><text fill="#000000" font-family="sans-serif" font-size="11" lengthAdjust="spacing" textLength="62" x="1228" y="331.0151">Algorithm()</text><polygon fill="#FFFF44" points="1219,335.6094,1223,339.6094,1219,343.6094,1215,339.6094" style="stroke:#B38D22;stroke-width:1.0;"/><text fill="#000000" font-family="sans-serif" font-size="11" lengthAdjust="spacing" textLength="262" x="1228" y="343.8198">decrypt(input : byte[], keySet : byte[]) : byte[]</text><polygon fill="#FFFF44" points="1219,348.4141,1223,352.4141,1219,356.4141,1215,352.4141" style="stroke:#B38D22;stroke-width:1.0;"/><text fill="#000000" font-family="sans-serif" font-size="11" lengthAdjust="spacing" textLength="262" x="1228" y="356.6245">encrypt(input : byte[], keySet : byte[]) : byte[]</text><rect fill="#F24D5C" height="6" style="stroke:#C82930;stroke-width:1.0;" width="6" x="1216" y="363.2188"/><text fill="#000000" font-family="sans-serif" font-size="11" lengthAdjust="spacing" textLength="236" x="1228" y="369.4292">getRoundKey(w : int, keySet : byte[]) : int</text><rect fill="#F24D5C" height="6" style="stroke:#C82930;stroke-width:1.0;" width="6" x="1216" y="376.0234"/><text fill="#000000" font-family="sans-serif" font-size="11" lengthAdjust="spacing" textLength="212" x="1228" y="382.2339">mergeArrays(n1 : int, n2 : int) : byte[]</text><ellipse cx="1219" cy="391.8281" fill="#84BE84" rx="3" ry="3" style="stroke:#038048;stroke-width:1.0;"/><text fill="#000000" font-family="sans-serif" font-size="11" font-style="italic" lengthAdjust="spacing" textLength="99" x="1228" y="395.0386">perform() : byte[]</text><rect fill="#F24D5C" height="6" style="stroke:#C82930;stroke-width:1.0;" width="6" x="1216" y="401.6328"/><text fill="#000000" font-family="sans-serif" font-size="11" lengthAdjust="spacing" textLength="336" x="1228" y="407.8433">performRound(startIndex : int, input : byte[], roundKey : int)</text><rect fill="#F24D5C" height="6" style="stroke:#C82930;stroke-width:1.0;" width="6" x="1216" y="414.4375"/><text fill="#000000" font-family="sans-serif" font-size="11" lengthAdjust="spacing" textLength="173" x="1228" y="420.6479">shiftLeftBy11Ranks(a : int) : int</text><rect fill="#F24D5C" height="6" style="stroke:#C82930;stroke-width:1.0;" width="6" x="1216" y="427.2422"/><text fill="#000000" font-family="sans-serif" font-size="11" lengthAdjust="spacing" textLength="182" x="1228" y="433.4526">substituteUsingSBox(n : int) : int</text><!--MD5=[cc1235169195379c3d25bcc76fdfda6b]
class Decryptor--><rect codeLine="50" fill="#FEFECE" filter="url(#f6z2qveue8o4)" height="99.2188" id="Decryptor" style="stroke:#A80036;stroke-width:1.5;" width="256" x="1406" y="73"/><ellipse cx="1499.25" cy="89" fill="#ADD1B2" rx="11" ry="11" style="stroke:#A80036;stroke-width:1.0;"/><path d="M1501.5938,84.6719 C1500.6563,84.2344 1500.0625,84.0938 1499.1875,84.0938 C1496.5625,84.0938 1494.5625,86.1719 1494.5625,88.8906 L1494.5625,90.0156 C1494.5625,92.5938 1496.6719,94.4844 1499.5625,94.4844 C1500.7813,94.4844 1501.9375,94.1875 1502.6875,93.6406 C1503.2656,93.2344 1503.5938,92.7813 1503.5938,92.3906 C1503.5938,91.9375 1503.2031,91.5469 1502.7344,91.5469 C1502.5156,91.5469 1502.3125,91.625 1502.125,91.8125 C1501.6719,92.2969 1501.6719,92.2969 1501.4844,92.3906 C1501.0625,92.6563 1500.375,92.7813 1499.6094,92.7813 C1497.5625,92.7813 1496.2656,91.6875 1496.2656,89.9844 L1496.2656,88.8906 C1496.2656,87.1094 1497.5156,85.7969 1499.25,85.7969 C1499.8281,85.7969 1500.4375,85.9531 1500.9063,86.2031 C1501.3906,86.4844 1501.5625,86.7031 1501.6563,87.1094 C1501.7188,87.5156 1501.75,87.6406 1501.8906,87.7656 C1502.0313,87.9063 1502.2656,88.0156 1502.4844,88.0156 C1502.75,88.0156 1503.0156,87.875 1503.1875,87.6563 C1503.2969,87.5 1503.3281,87.3125 1503.3281,86.8906 L1503.3281,85.4688 C1503.3281,85.0313 1503.3125,84.9063 1503.2188,84.75 C1503.0625,84.4844 1502.7813,84.3438 1502.4844,84.3438 C1502.1875,84.3438 1501.9844,84.4375 1501.7656,84.75 L1501.5938,84.6719 Z " fill="#000000"/><text fill="#000000" font-family="sans-serif" font-size="12" lengthAdjust="spacing" textLength="61" x="1519.75" y="93.1543">Decryptor</text><line style="stroke:#A80036;stroke-width:1.5;" x1="1407" x2="1661" y1="105" y2="105"/><rect fill="none" height="6" style="stroke:#C82930;stroke-width:1.0;" width="6" x="1414" y="113"/><text fill="#000000" font-family="sans-serif" font-size="11" lengthAdjust="spacing" textLength="73" x="1426" y="119.2104">input : byte[]</text><rect fill="none" height="6" style="stroke:#C82930;stroke-width:1.0;" width="6" x="1414" y="125.8047"/><text fill="#000000" font-family="sans-serif" font-size="11" lengthAdjust="spacing" textLength="86" x="1426" y="132.0151">keySet : byte[]</text><line style="stroke:#A80036;stroke-width:1.5;" x1="1407" x2="1661" y1="138.6094" y2="138.6094"/><ellipse cx="1417" cy="149.6094" fill="#84BE84" rx="3" ry="3" style="stroke:#038048;stroke-width:1.0;"/><text fill="#000000" font-family="sans-serif" font-size="11" lengthAdjust="spacing" textLength="230" x="1426" y="152.8198">Decryptor(input : byte[], keySet : byte[])</text><ellipse cx="1417" cy="162.4141" fill="#84BE84" rx="3" ry="3" style="stroke:#038048;stroke-width:1.0;"/><text fill="#000000" font-family="sans-serif" font-size="11" lengthAdjust="spacing" textLength="98" x="1426" y="165.6245">perform() : byte[]</text><!--MD5=[b2f9fd5e50dd999be3fbf662fc19368c]
class Encryptor--><rect codeLine="56" fill="#FEFECE" filter="url(#f6z2qveue8o4)" height="99.2188" id="Encryptor" style="stroke:#A80036;stroke-width:1.5;" width="253" x="1117.5" y="73"/><ellipse cx="1210.75" cy="89" fill="#ADD1B2" rx="11" ry="11" style="stroke:#A80036;stroke-width:1.0;"/><path d="M1213.0938,84.6719 C1212.1563,84.2344 1211.5625,84.0938 1210.6875,84.0938 C1208.0625,84.0938 1206.0625,86.1719 1206.0625,88.8906 L1206.0625,90.0156 C1206.0625,92.5938 1208.1719,94.4844 1211.0625,94.4844 C1212.2813,94.4844 1213.4375,94.1875 1214.1875,93.6406 C1214.7656,93.2344 1215.0938,92.7813 1215.0938,92.3906 C1215.0938,91.9375 1214.7031,91.5469 1214.2344,91.5469 C1214.0156,91.5469 1213.8125,91.625 1213.625,91.8125 C1213.1719,92.2969 1213.1719,92.2969 1212.9844,92.3906 C1212.5625,92.6563 1211.875,92.7813 1211.1094,92.7813 C1209.0625,92.7813 1207.7656,91.6875 1207.7656,89.9844 L1207.7656,88.8906 C1207.7656,87.1094 1209.0156,85.7969 1210.75,85.7969 C1211.3281,85.7969 1211.9375,85.9531 1212.4063,86.2031 C1212.8906,86.4844 1213.0625,86.7031 1213.1563,87.1094 C1213.2188,87.5156 1213.25,87.6406 1213.3906,87.7656 C1213.5313,87.9063 1213.7656,88.0156 1213.9844,88.0156 C1214.25,88.0156 1214.5156,87.875 1214.6875,87.6563 C1214.7969,87.5 1214.8281,87.3125 1214.8281,86.8906 L1214.8281,85.4688 C1214.8281,85.0313 1214.8125,84.9063 1214.7188,84.75 C1214.5625,84.4844 1214.2813,84.3438 1213.9844,84.3438 C1213.6875,84.3438 1213.4844,84.4375 1213.2656,84.75 L1213.0938,84.6719 Z " fill="#000000"/><text fill="#000000" font-family="sans-serif" font-size="12" lengthAdjust="spacing" textLength="58" x="1231.25" y="93.1543">Encryptor</text><line style="stroke:#A80036;stroke-width:1.5;" x1="1118.5" x2="1369.5" y1="105" y2="105"/><rect fill="none" height="6" style="stroke:#C82930;stroke-width:1.0;" width="6" x="1125.5" y="113"/><text fill="#000000" font-family="sans-serif" font-size="11" lengthAdjust="spacing" textLength="73" x="1137.5" y="119.2104">input : byte[]</text><rect fill="none" height="6" style="stroke:#C82930;stroke-width:1.0;" width="6" x="1125.5" y="125.8047"/><text fill="#000000" font-family="sans-serif" font-size="11" lengthAdjust="spacing" textLength="86" x="1137.5" y="132.0151">keySet : byte[]</text><line style="stroke:#A80036;stroke-width:1.5;" x1="1118.5" x2="1369.5" y1="138.6094" y2="138.6094"/><ellipse cx="1128.5" cy="149.6094" fill="#84BE84" rx="3" ry="3" style="stroke:#038048;stroke-width:1.0;"/><text fill="#000000" font-family="sans-serif" font-size="11" lengthAdjust="spacing" textLength="227" x="1137.5" y="152.8198">Encryptor(input : byte[], keySet : byte[])</text><ellipse cx="1128.5" cy="162.4141" fill="#84BE84" rx="3" ry="3" style="stroke:#038048;stroke-width:1.0;"/><text fill="#000000" font-family="sans-serif" font-size="11" lengthAdjust="spacing" textLength="98" x="1137.5" y="165.6245">perform() : byte[]</text><!--MD5=[8c55e1987c5975945092f2659b934856]
link Decryptor to Algorithm--><path codeLine="63" d="M1503.07,172.025 C1489.08,193.97 1471.98,220.807 1455.31,246.955 " fill="none" id="Decryptor-to-Algorithm" style="stroke:#A80036;stroke-width:1.0;"/><polygon fill="none" points="1461.12,250.876,1444.46,263.979,1449.31,243.352,1461.12,250.876" style="stroke:#A80036;stroke-width:1.0;"/><!--MD5=[af4e0e928855be37860fb0b2dc93198b]
link Encryptor to Algorithm--><path codeLine="64" d="M1274.93,172.025 C1288.92,193.97 1306.02,220.807 1322.69,246.955 " fill="none" id="Encryptor-to-Algorithm" style="stroke:#A80036;stroke-width:1.0;"/><polygon fill="none" points="1328.69,243.352,1333.54,263.979,1316.88,250.876,1328.69,243.352" style="stroke:#A80036;stroke-width:1.0;"/><!--MD5=[a53cb84c42abb1f423392a6b4d9066cc]
link Data to KeyGen--><!--MD5=[2dc8a2bf11c15a6c56b117cf84bf3ad2]
link Data to Payload--><!--MD5=[a6a22b3551831dd68bec9cf519b4dfe9]
@startuml
package ru.mirea.edu.magmacrypt {
  class App {
    + KEY_FILE_OUTPUT_PATH : String {static}
    + OUTPUT_FILE_PATH : String {static}
    + App()
    + decrypt(encryptedFilePath : String, keyFilePath : String, outputPath : String) {static}
    + encrypt(path : String, outputPath : String) {static}
    + main(args : String[]) {static}
  }
}
package ru.mirea.edu.magmacrypt.auxiliary {
  class Data {
    + Data()
    + addPadding(source : byte[]) : byte[] {static}
    + checkIfPathIsFile(path : String) : boolean {static}
    + checkIfPathNonExists(path : String) : boolean {static}
    + deserializeBytesToObject(bytes : byte[]) : Payload {static}
    + packDirectory(path : String) : byte[] {static}
    + readFileBytes(path : String) : byte[] {static}
    + serializeObjectToBytes(obj : Payload) : byte[] {static}
    + writeBytesToFileByPath(path : String, payload : byte[]) {static}
  }
  class KeyGen {
    + KeyGen()
    + generateKey() : byte[] {static}
  }
  class Payload {
    - bytes : byte[]
    - fileName : String
    - serialVersionUID : long {static}
    + Payload()
    + Payload(fileName : String, bytes : byte[])
    + getBytes() : byte[]
    + getFileName() : String
  }
}
package ru.mirea.edu.magmacrypt.cipher {
  abstract class Algorithm {
    - sBox : byte[][]
    + Algorithm()
    # decrypt(input : byte[], keySet : byte[]) : byte[]
    # encrypt(input : byte[], keySet : byte[]) : byte[]
    - getRoundKey(w : int, keySet : byte[]) : int
    - mergeArrays(n1 : int, n2 : int) : byte[]
    + perform() : byte[] {abstract}
    - performRound(startIndex : int, input : byte[], roundKey : int)
    - shiftLeftBy11Ranks(a : int) : int
    - substituteUsingSBox(n : int) : int
  }
  class Decryptor {
    - input : byte[]
    - keySet : byte[]
    + Decryptor(input : byte[], keySet : byte[])
    + perform() : byte[]
  }
  class Encryptor {
    - input : byte[]
    - keySet : byte[]
    + Encryptor(input : byte[], keySet : byte[])
    + perform() : byte[]
  }
}
Decryptor - -|> Algorithm 
Encryptor - -|> Algorithm
@enduml

PlantUML version 1.2021.17beta4(Unknown compile time)
(GPL source distribution)
Java Runtime: Java(TM) SE Runtime Environment
JVM: Java HotSpot(TM) 64-Bit Server VM
Default Encoding: UTF-8
Language: en
Country: US
--></g></svg>